<mxfile host="app.diagrams.net" modified="2022-09-18T14:59:22.274Z" agent="5.0 (Macintosh; Intel Mac OS X 10_15_7) AppleWebKit/537.36 (KHTML, like Gecko) Chrome/104.0.0.0 Safari/537.36" etag="8VR-e-D6sRzuQKmkTVhf" version="20.3.2" type="github">
  <diagram id="bz8OklSp8FsxH9QuBR8d" name="Page-1">
    <mxGraphModel dx="1060" dy="693" grid="1" gridSize="10" guides="1" tooltips="1" connect="1" arrows="1" fold="1" page="1" pageScale="1" pageWidth="850" pageHeight="1100" math="0" shadow="0">
      <root>
        <mxCell id="0" />
        <mxCell id="1" parent="0" />
        <mxCell id="itBuSyXGRm5_dR82l8if-1" style="edgeStyle=orthogonalEdgeStyle;rounded=0;orthogonalLoop=1;jettySize=auto;html=1;exitX=0.5;exitY=1;exitDx=0;exitDy=0;entryX=0.5;entryY=0;entryDx=0;entryDy=0;" edge="1" parent="1" source="lQ4FBdJYQrp4230dx45A-1" target="lQ4FBdJYQrp4230dx45A-2">
          <mxGeometry relative="1" as="geometry" />
        </mxCell>
        <mxCell id="itBuSyXGRm5_dR82l8if-2" style="edgeStyle=orthogonalEdgeStyle;rounded=0;orthogonalLoop=1;jettySize=auto;html=1;exitX=0.5;exitY=1;exitDx=0;exitDy=0;entryX=0.5;entryY=0;entryDx=0;entryDy=0;" edge="1" parent="1" source="lQ4FBdJYQrp4230dx45A-1" target="lQ4FBdJYQrp4230dx45A-27">
          <mxGeometry relative="1" as="geometry" />
        </mxCell>
        <mxCell id="itBuSyXGRm5_dR82l8if-3" style="edgeStyle=orthogonalEdgeStyle;rounded=0;orthogonalLoop=1;jettySize=auto;html=1;exitX=0.5;exitY=1;exitDx=0;exitDy=0;entryX=0.5;entryY=0;entryDx=0;entryDy=0;" edge="1" parent="1" source="lQ4FBdJYQrp4230dx45A-1" target="lQ4FBdJYQrp4230dx45A-35">
          <mxGeometry relative="1" as="geometry" />
        </mxCell>
        <mxCell id="itBuSyXGRm5_dR82l8if-5" style="edgeStyle=orthogonalEdgeStyle;rounded=0;orthogonalLoop=1;jettySize=auto;html=1;exitX=0.5;exitY=1;exitDx=0;exitDy=0;entryX=0.5;entryY=0;entryDx=0;entryDy=0;" edge="1" parent="1" source="lQ4FBdJYQrp4230dx45A-1" target="lQ4FBdJYQrp4230dx45A-5">
          <mxGeometry relative="1" as="geometry" />
        </mxCell>
        <mxCell id="lQ4FBdJYQrp4230dx45A-19" value="Sitemap" parent="0" />
        <mxCell id="lQ4FBdJYQrp4230dx45A-1" value="index" style="rounded=0;whiteSpace=wrap;html=1;fillColor=#f5f5f5;fontColor=#333333;strokeColor=#666666;" parent="lQ4FBdJYQrp4230dx45A-19" vertex="1">
          <mxGeometry x="365" y="40" width="120" height="40" as="geometry" />
        </mxCell>
        <mxCell id="lQ4FBdJYQrp4230dx45A-5" value="Contact" style="rounded=0;whiteSpace=wrap;html=1;fillColor=#d5e8d4;strokeColor=#82b366;" parent="lQ4FBdJYQrp4230dx45A-19" vertex="1">
          <mxGeometry x="680" y="120" width="120" height="40" as="geometry" />
        </mxCell>
        <mxCell id="lQ4FBdJYQrp4230dx45A-25" value="" style="group" parent="lQ4FBdJYQrp4230dx45A-19" vertex="1" connectable="0">
          <mxGeometry x="90" y="120" width="170" height="250" as="geometry" />
        </mxCell>
        <mxCell id="lQ4FBdJYQrp4230dx45A-2" value="Home" style="rounded=0;whiteSpace=wrap;html=1;fillColor=#d5e8d4;strokeColor=#82b366;" parent="lQ4FBdJYQrp4230dx45A-25" vertex="1">
          <mxGeometry width="120" height="40" as="geometry" />
        </mxCell>
        <mxCell id="lQ4FBdJYQrp4230dx45A-6" value="About overview" style="rounded=0;whiteSpace=wrap;html=1;fillColor=#ffe6cc;strokeColor=#d79b00;" parent="lQ4FBdJYQrp4230dx45A-25" vertex="1">
          <mxGeometry x="50" y="70" width="120" height="40" as="geometry" />
        </mxCell>
        <mxCell id="lQ4FBdJYQrp4230dx45A-22" style="edgeStyle=orthogonalEdgeStyle;rounded=0;orthogonalLoop=1;jettySize=auto;html=1;exitX=0.25;exitY=1;exitDx=0;exitDy=0;entryX=0;entryY=0.5;entryDx=0;entryDy=0;fontSize=32;" parent="lQ4FBdJYQrp4230dx45A-25" source="lQ4FBdJYQrp4230dx45A-2" target="lQ4FBdJYQrp4230dx45A-6" edge="1">
          <mxGeometry relative="1" as="geometry" />
        </mxCell>
        <mxCell id="lQ4FBdJYQrp4230dx45A-7" value="Projects overview" style="rounded=0;whiteSpace=wrap;html=1;fillColor=#ffe6cc;strokeColor=#d79b00;" parent="lQ4FBdJYQrp4230dx45A-25" vertex="1">
          <mxGeometry x="50" y="140" width="120" height="40" as="geometry" />
        </mxCell>
        <mxCell id="lQ4FBdJYQrp4230dx45A-23" style="edgeStyle=orthogonalEdgeStyle;rounded=0;orthogonalLoop=1;jettySize=auto;html=1;exitX=0.25;exitY=1;exitDx=0;exitDy=0;entryX=0;entryY=0.5;entryDx=0;entryDy=0;fontSize=32;" parent="lQ4FBdJYQrp4230dx45A-25" source="lQ4FBdJYQrp4230dx45A-2" target="lQ4FBdJYQrp4230dx45A-7" edge="1">
          <mxGeometry relative="1" as="geometry" />
        </mxCell>
        <mxCell id="lQ4FBdJYQrp4230dx45A-20" value="Skills overview" style="rounded=0;whiteSpace=wrap;html=1;fillColor=#ffe6cc;strokeColor=#d79b00;" parent="lQ4FBdJYQrp4230dx45A-25" vertex="1">
          <mxGeometry x="50" y="210" width="120" height="40" as="geometry" />
        </mxCell>
        <mxCell id="lQ4FBdJYQrp4230dx45A-24" style="edgeStyle=orthogonalEdgeStyle;rounded=0;orthogonalLoop=1;jettySize=auto;html=1;exitX=0.25;exitY=1;exitDx=0;exitDy=0;entryX=0;entryY=0.5;entryDx=0;entryDy=0;fontSize=32;" parent="lQ4FBdJYQrp4230dx45A-25" source="lQ4FBdJYQrp4230dx45A-2" target="lQ4FBdJYQrp4230dx45A-20" edge="1">
          <mxGeometry relative="1" as="geometry" />
        </mxCell>
        <mxCell id="lQ4FBdJYQrp4230dx45A-26" value="" style="group" parent="lQ4FBdJYQrp4230dx45A-19" vertex="1" connectable="0">
          <mxGeometry x="290" y="120" width="170" height="250" as="geometry" />
        </mxCell>
        <mxCell id="lQ4FBdJYQrp4230dx45A-27" value="About" style="rounded=0;whiteSpace=wrap;html=1;fillColor=#d5e8d4;strokeColor=#82b366;" parent="lQ4FBdJYQrp4230dx45A-26" vertex="1">
          <mxGeometry width="120" height="40" as="geometry" />
        </mxCell>
        <mxCell id="lQ4FBdJYQrp4230dx45A-28" value="Self intro paragraphs" style="rounded=0;whiteSpace=wrap;html=1;fillColor=#ffe6cc;strokeColor=#d79b00;" parent="lQ4FBdJYQrp4230dx45A-26" vertex="1">
          <mxGeometry x="50" y="70" width="120" height="40" as="geometry" />
        </mxCell>
        <mxCell id="lQ4FBdJYQrp4230dx45A-29" style="edgeStyle=orthogonalEdgeStyle;rounded=0;orthogonalLoop=1;jettySize=auto;html=1;exitX=0.25;exitY=1;exitDx=0;exitDy=0;entryX=0;entryY=0.5;entryDx=0;entryDy=0;fontSize=32;" parent="lQ4FBdJYQrp4230dx45A-26" source="lQ4FBdJYQrp4230dx45A-27" target="lQ4FBdJYQrp4230dx45A-28" edge="1">
          <mxGeometry relative="1" as="geometry" />
        </mxCell>
        <mxCell id="lQ4FBdJYQrp4230dx45A-30" value="Work Exp / View CV" style="rounded=0;whiteSpace=wrap;html=1;fillColor=#ffe6cc;strokeColor=#d79b00;" parent="lQ4FBdJYQrp4230dx45A-26" vertex="1">
          <mxGeometry x="50" y="140" width="120" height="40" as="geometry" />
        </mxCell>
        <mxCell id="lQ4FBdJYQrp4230dx45A-31" style="edgeStyle=orthogonalEdgeStyle;rounded=0;orthogonalLoop=1;jettySize=auto;html=1;exitX=0.25;exitY=1;exitDx=0;exitDy=0;entryX=0;entryY=0.5;entryDx=0;entryDy=0;fontSize=32;" parent="lQ4FBdJYQrp4230dx45A-26" source="lQ4FBdJYQrp4230dx45A-27" target="lQ4FBdJYQrp4230dx45A-30" edge="1">
          <mxGeometry relative="1" as="geometry" />
        </mxCell>
        <mxCell id="lQ4FBdJYQrp4230dx45A-32" value="My gears" style="rounded=0;whiteSpace=wrap;html=1;fillColor=#ffe6cc;strokeColor=#d79b00;" parent="lQ4FBdJYQrp4230dx45A-26" vertex="1">
          <mxGeometry x="50" y="210" width="120" height="40" as="geometry" />
        </mxCell>
        <mxCell id="lQ4FBdJYQrp4230dx45A-33" style="edgeStyle=orthogonalEdgeStyle;rounded=0;orthogonalLoop=1;jettySize=auto;html=1;exitX=0.25;exitY=1;exitDx=0;exitDy=0;entryX=0;entryY=0.5;entryDx=0;entryDy=0;fontSize=32;" parent="lQ4FBdJYQrp4230dx45A-26" source="lQ4FBdJYQrp4230dx45A-27" target="lQ4FBdJYQrp4230dx45A-32" edge="1">
          <mxGeometry relative="1" as="geometry" />
        </mxCell>
        <mxCell id="lQ4FBdJYQrp4230dx45A-42" value="" style="group" parent="lQ4FBdJYQrp4230dx45A-19" vertex="1" connectable="0">
          <mxGeometry x="490" y="120" width="170" height="340" as="geometry" />
        </mxCell>
        <mxCell id="lQ4FBdJYQrp4230dx45A-40" value="Personal Projects" style="rounded=0;whiteSpace=wrap;html=1;fillColor=#ffe6cc;strokeColor=#d79b00;" parent="lQ4FBdJYQrp4230dx45A-42" vertex="1">
          <mxGeometry x="50" y="300" width="120" height="40" as="geometry" />
        </mxCell>
        <mxCell id="lQ4FBdJYQrp4230dx45A-41" style="edgeStyle=orthogonalEdgeStyle;rounded=0;orthogonalLoop=1;jettySize=auto;html=1;exitX=0.25;exitY=1;exitDx=0;exitDy=0;entryX=0;entryY=0.5;entryDx=0;entryDy=0;fontSize=32;" parent="lQ4FBdJYQrp4230dx45A-42" source="lQ4FBdJYQrp4230dx45A-35" target="lQ4FBdJYQrp4230dx45A-40" edge="1">
          <mxGeometry relative="1" as="geometry" />
        </mxCell>
        <mxCell id="lQ4FBdJYQrp4230dx45A-35" value="Projects" style="rounded=0;whiteSpace=wrap;html=1;fillColor=#d5e8d4;strokeColor=#82b366;" parent="lQ4FBdJYQrp4230dx45A-42" vertex="1">
          <mxGeometry width="120" height="40" as="geometry" />
        </mxCell>
        <mxCell id="lQ4FBdJYQrp4230dx45A-37" style="edgeStyle=orthogonalEdgeStyle;rounded=0;orthogonalLoop=1;jettySize=auto;html=1;exitX=0.25;exitY=1;exitDx=0;exitDy=0;entryX=0;entryY=0.5;entryDx=0;entryDy=0;fontSize=32;" parent="lQ4FBdJYQrp4230dx45A-42" source="lQ4FBdJYQrp4230dx45A-35" target="lQ4FBdJYQrp4230dx45A-36" edge="1">
          <mxGeometry relative="1" as="geometry" />
        </mxCell>
        <mxCell id="lQ4FBdJYQrp4230dx45A-39" style="edgeStyle=orthogonalEdgeStyle;rounded=0;orthogonalLoop=1;jettySize=auto;html=1;exitX=0.25;exitY=1;exitDx=0;exitDy=0;entryX=0;entryY=0.5;entryDx=0;entryDy=0;fontSize=32;" parent="lQ4FBdJYQrp4230dx45A-42" source="lQ4FBdJYQrp4230dx45A-35" target="lQ4FBdJYQrp4230dx45A-38" edge="1">
          <mxGeometry relative="1" as="geometry" />
        </mxCell>
        <mxCell id="lQ4FBdJYQrp4230dx45A-36" value="Types of projects at companies" style="rounded=0;whiteSpace=wrap;html=1;fillColor=#ffe6cc;strokeColor=#d79b00;" parent="lQ4FBdJYQrp4230dx45A-42" vertex="1">
          <mxGeometry x="50" y="70" width="120" height="40" as="geometry" />
        </mxCell>
        <mxCell id="lQ4FBdJYQrp4230dx45A-38" value="Work Exp / View CV" style="rounded=0;whiteSpace=wrap;html=1;fillColor=#ffe6cc;strokeColor=#d79b00;" parent="lQ4FBdJYQrp4230dx45A-42" vertex="1">
          <mxGeometry x="50" y="240" width="120" height="40" as="geometry" />
        </mxCell>
      </root>
    </mxGraphModel>
  </diagram>
</mxfile>
